<svg xmlns="http://www.w3.org/2000/svg" viewBox="0 0 64 64">
  <g fill="#FF7D4D">
    <path d="M7.293 0L0 4.268 8.44 8.536l8.446-4.268zm48.514 0l-8.446 4.268L64 4.268l-7.293-4.268zM4.268 15.975L0 11.707l8.44-4.268 4.268 4.268zm55.464 0l4.268-4.268L64 11.707l-8.446 4.268zM2.135 25.94l-1.07-2.135 8.446-4.268 1.07 2.135zm57.729 0l1.07-2.135-8.446-4.268-1.07 2.135zm-4.268 11.707l4.268-4.268-8.446-4.268-4.268 4.268zm-51.883 0L.267 35.494l8.446 4.268 4.268-4.268zm15.346 6.403l-1.07-2.135 8.446-4.268 1.07 2.135zm31.29 0l1.07-2.135-8.446-4.268-1.07 2.135zm-43.177 11.707l-4.268-4.268-8.446 4.268 4.268 4.268zm63.29 0l4.268-4.268-8.446-4.268-4.268 4.268zM10.743 64l4.268-4.268-4.268-4.268-4.268 4.268zm42.268 0l4.268-4.268-4.268-4.268-4.268 4.268zM0 59.732l4.268-4.268L8.536 64 4.268 68.268zm64 0l-4.268-4.268L59.732 64l4.268 4.268z"/>
  </g>
</svg>